<svg width="92" height="98" viewBox="0 0 92 98" fill="none" xmlns="http://www.w3.org/2000/svg">
<g opacity="0.6" filter="url(#filter0_d_8_788)">
<path d="M6.39059 3.93152C9.3346 8.94724 13.5252 13.4918 17.1563 18.0307C23.4263 25.8681 30.2875 33.3388 37.3781 40.4295C51.1468 54.1981 65.2506 67.6275 80.1689 80.1589" stroke="black" stroke-width="2" stroke-linecap="round"/>
<path d="M5.4722 1.78857C6.34934 4.57947 8.9028 7.4125 10.6765 9.64601C16.5085 16.99 22.1434 24.4983 28.1261 31.7217C41.4894 47.8562 58.1161 60.7285 71.9033 76.4852" stroke="black" stroke-width="2" stroke-linecap="round"/>
<path d="M5.16608 3.01306C5.73972 3.14054 6.24794 4.06836 6.62872 4.4757C8.05554 6.00207 9.17587 7.70455 10.7275 9.15275C18.9549 16.8317 26.7701 24.4807 33.9767 33.1672C42.8943 43.9162 52.4592 54.1388 61.4267 64.8521C67.944 72.6383 74.4414 80.45 81.0873 88.1183" stroke="black" stroke-width="2" stroke-linecap="round"/>
<path d="M86.2915 6.68677C85.1425 7.1549 84.4131 7.98368 83.5363 8.8297C81.801 10.5042 79.8518 11.9223 78.128 13.6258C68.4297 23.21 59.0821 33.083 49.7596 43.0317C35.6576 58.0808 20.666 72.3123 6.08447 86.8938" stroke="black" stroke-width="2" stroke-linecap="round"/>
<path d="M85.9854 6.68677C82.816 9.0383 80.2881 12.3379 77.7028 15.2925C70.1186 23.9601 62.0753 32.199 54.3686 40.7527C47.0205 48.9083 39.2455 56.9516 31.1874 64.41C24.5871 70.5191 18.4335 76.6359 13.4317 84.1386" stroke="black" stroke-width="2" stroke-linecap="round"/>
<path d="M78.6382 11.891C76.1661 14.363 74.7137 17.5495 72.4645 20.1736C65.3102 28.5203 58.0345 36.7224 50.0997 44.3412C40.1501 53.8945 29.3984 62.9033 20.3877 73.3729C16.5625 77.8174 11.9614 82.7328 10.0642 88.4245" stroke="black" stroke-width="2" stroke-linecap="round"/>
</g>
<defs>
<filter id="filter0_d_8_788" x="0.165863" y="0.78833" width="91.1259" height="96.6364" filterUnits="userSpaceOnUse" color-interpolation-filters="sRGB">
<feFlood flood-opacity="0" result="BackgroundImageFix"/>
<feColorMatrix in="SourceAlpha" type="matrix" values="0 0 0 0 0 0 0 0 0 0 0 0 0 0 0 0 0 0 127 0" result="hardAlpha"/>
<feOffset dy="4"/>
<feGaussianBlur stdDeviation="2"/>
<feComposite in2="hardAlpha" operator="out"/>
<feColorMatrix type="matrix" values="0 0 0 0 0 0 0 0 0 0 0 0 0 0 0 0 0 0 0.25 0"/>
<feBlend mode="normal" in2="BackgroundImageFix" result="effect1_dropShadow_8_788"/>
<feBlend mode="normal" in="SourceGraphic" in2="effect1_dropShadow_8_788" result="shape"/>
</filter>
</defs>
</svg>
