<svg width="25" height="25" viewBox="0 0 15 17" fill="none" xmlns="http://www.w3.org/2000/svg">
<path d="M5.59996 11.5157C2.78355 11.5157 3.22847 6.42923 3.26918 4.5973C3.34329 1.26217 9.06235 1.84809 10.8535 3.19143C15.4029 6.60349 9.90462 14.9775 5.26699 15.4928C1.26873 15.937 1.27136 10.3617 1.27136 7.68651C1.27136 3.71499 4.10614 1.52747 7.93074 1.67457C13.7607 1.8988 15.8969 13.5135 9.26262 13.5135C6.61162 13.5135 4.26808 9.29557 4.26808 6.85409C4.26808 5.4653 4.29785 5.2246 5.67395 4.78228C6.56672 4.49532 7.63481 3.95251 8.59668 4.22733C10.4297 4.75104 10.9275 8.65668 10.9275 10.1838C10.9275 12.4597 8.60927 13.1931 7.00583 11.5896C5.54998 10.1338 5.28428 7.52154 5.59996 5.52221C5.68114 5.00804 7.25868 4.52331 7.76426 4.52331C8.49667 4.52331 8.92965 6.56021 8.92965 7.20556C8.92965 8.97974 8.97139 12.2078 6.59887 9.66583C5.63433 8.63239 5.8888 7.77431 5.52597 6.59511C5.18219 5.47784 5.45372 5.47553 6.59887 5.18924" stroke="#585858" stroke-width="2" stroke-linecap="round"/>
</svg>
