<svg width="100" height="100" viewBox="0 0 100 100" fill="none" xmlns="http://www.w3.org/2000/svg">
<mask id="mask0_5_517" style="mask-type:alpha" maskUnits="userSpaceOnUse" x="0" y="0" width="100" height="100">
<rect width="100" height="100" fill="#D9D9D9"/>
</mask>
<g mask="url(#mask0_5_517)">
<path d="M3.36277 0.308838C2.8032 0.473416 2.43108 2.12347 2.24566 2.60688C1.79536 3.78088 1.17689 4.85569 0.777466 6.05395" stroke="#DBDBDB" stroke-linecap="round"/>
<path d="M4.79905 -0.12207C4.79905 2.16047 3.46508 4.60781 2.21375 6.48481" stroke="#DBDBDB" stroke-linecap="round"/>
<path d="M6.37895 -0.265625C5.39422 1.40085 4.59347 3.17419 3.66598 4.87306C3.21647 5.69642 2.71835 6.47835 2.35737 7.34665C2.00162 8.20238 1.49561 9.12364 1.49561 10.0756" stroke="#DBDBDB" stroke-linecap="round"/>
<path d="M7.6716 0.596191C5.91066 3.13195 5.19686 6.3498 3.21914 8.76702C2.50362 9.64155 1.49561 10.5786 1.49561 11.7992" stroke="#DBDBDB" stroke-linecap="round"/>
<path d="M8.53339 0.596191C6.57046 3.86774 5.57998 7.70432 3.76175 11.081C2.68584 13.0792 1.15246 15.2308 0.921112 17.5443" stroke="#DBDBDB" stroke-linecap="round"/>
<path d="M12.8422 -0.12207C11.444 2.29299 10.2756 4.82019 8.80469 7.20295C7.99164 8.51999 7.17532 9.83344 6.37897 11.1607C5.43863 12.7279 4.10063 14.5534 3.79367 16.3951" stroke="#DBDBDB" stroke-linecap="round"/>
<path d="M13.5604 0.165283C11.3151 4.48741 8.96999 8.78989 6.20343 12.8045C4.93773 14.6412 3.50657 16.3471 2.35739 18.2624" stroke="#DBDBDB" stroke-linecap="round"/>
<path d="M17.8692 -1.98926C15.6105 1.17292 13.4154 4.30357 10.7516 7.15505C9.07883 8.94571 7.15251 10.4025 5.34164 12.0384C3.80011 13.431 2.26126 14.8195 0.697677 16.1876C0.0498818 16.7545 -0.57542 17.2893 -1.08969 17.975" stroke="#DBDBDB" stroke-linecap="round"/>
<path d="M14.853 2.17603C14.483 4.47846 13.6662 6.74351 12.9619 8.95845C12.3329 10.9365 11.6826 12.735 10.5841 14.4961C9.66676 15.9667 8.64943 18.3973 6.95346 19.1241" stroke="#DBDBDB" stroke-linecap="round"/>
<path d="M18.5873 1.74512C16.2561 5.46089 13.7984 9.02817 10.7835 12.2299C9.09514 14.0231 7.14826 15.5553 5.41346 17.3048C3.48158 19.2531 0.956152 21.1424 -0.371552 23.5765" stroke="#DBDBDB" stroke-linecap="round"/>
<path d="M13.9912 2.31958C11.6765 6.80445 9.22918 11.2129 6.13957 15.2142C4.83406 16.9049 3.42439 18.5121 2.21375 20.2731" stroke="#DBDBDB" stroke-linecap="round"/>
<path d="M9.39515 2.03247C7.99623 4.97757 6.65122 7.91039 4.8629 10.6501C4.02358 11.936 3.06103 13.1361 2.21376 14.4164C1.03923 16.1912 -0.371028 18.2547 -0.515167 20.4168" stroke="#DBDBDB" stroke-linecap="round"/>
<path d="M20.1672 2.31958C17.1831 7.67052 14.1716 12.9801 10.0175 17.4963C8.01663 19.6716 6.17154 22.0803 3.79367 23.8638" stroke="#DBDBDB" stroke-linecap="round"/>
<path d="M17.7256 1.31421C15.9671 5.04562 14.3912 8.86 12.4752 12.5172C11.1502 15.0462 9.54241 17.4509 7.92696 19.8023C5.99134 22.6197 3.56384 25.1708 1.92651 28.1726" stroke="#DBDBDB" stroke-linecap="round"/>
<path d="M23.1834 0.596191C20.7392 3.78732 18.6199 7.2501 16.2574 10.5065C14.4367 13.0161 12.5357 15.4659 10.7038 17.9672C9.27635 19.9161 8.03932 21.9785 6.6742 23.9676C5.83823 25.1858 4.92147 26.2915 4.22455 27.5982" stroke="#DBDBDB" stroke-linecap="round"/>
<path d="M21.4599 0.165283C19.3563 4.82728 17.1992 9.40272 14.6136 13.8259C12.8566 16.8317 10.8426 19.4459 8.62914 22.1244C6.06409 25.2283 2.95895 28.1263 0.921112 31.6198" stroke="#DBDBDB" stroke-linecap="round"/>
<path d="M20.8854 4.90503C18.2123 11.2231 15.7436 17.5374 11.6932 23.1138C10.1071 25.2975 8.48162 27.4801 6.76196 29.5611C6.19236 30.2504 5.582 30.8763 5.0863 31.6198" stroke="#DBDBDB" stroke-linecap="round"/>
<path d="M28.6413 0.308838C24.6825 7.59657 20.4166 14.7385 15.3397 21.3024C12.2818 25.2561 9.22297 29.2352 6.37897 33.3432" stroke="#DBDBDB" stroke-linecap="round"/>
<path d="M30.5084 -1.271C27.6276 5.01457 24.1293 11.0639 20.3907 16.874C17.682 21.0835 14.1989 24.8143 10.9112 28.5717C8.37496 31.4703 5.66077 34.2032 2.99574 36.9819C1.91244 38.1114 0.639749 39.2232 -0.227905 40.5247" stroke="#DBDBDB" stroke-linecap="round"/>
<path d="M23.1834 1.45789C17.8248 14.3187 13.1345 27.7368 3.07553 37.7957" stroke="#DBDBDB" stroke-linecap="round"/>
<path d="M32.9501 -1.7019C30.2915 3.99524 27.5145 9.65991 24.2207 15.0228C21.8908 18.8163 18.9472 22.3007 15.9302 25.5634C11.5816 30.2664 6.91328 34.719 1.63925 38.3703" stroke="#DBDBDB" stroke-linecap="round"/>
<path d="M34.2427 1.45789C31.1671 6.2304 28.6532 11.3543 25.2899 15.9483C22.9117 19.1969 20.2904 22.2899 17.55 25.2363C12.6169 30.54 7.45679 35.5359 1.49561 39.6629" stroke="#DBDBDB" stroke-linecap="round"/>
<path d="M36.1099 -0.696533C32.3995 5.73493 28.0985 11.9509 23.6781 17.9112C21.3363 21.069 18.6764 24.0546 16.018 26.9438C11.4899 31.8651 6.79893 36.6576 2.07013 41.3864" stroke="#DBDBDB" stroke-linecap="round"/>
<path d="M33.0938 5.04858C28.8025 13.7536 24.0365 22.5191 17.6538 29.8962C13.1555 35.0952 8.34165 39.8294 3.36279 44.5462" stroke="#DBDBDB" stroke-linecap="round"/>
<path d="M39.8442 3.32495C36.3632 7.80063 32.9342 12.3998 29.1041 16.5866C26.1975 19.7638 23.0644 22.7327 20.1194 25.8745C15.406 30.9028 10.825 36.0615 6.15554 41.131C4.9487 42.4412 3.76768 43.6515 2.78827 45.1206" stroke="#DBDBDB" stroke-linecap="round"/>
<path d="M37.6898 -1.98926C27.4551 17.9269 15.5337 37.2082 -0.946045 52.5893" stroke="#DBDBDB" stroke-linecap="round"/>
<path d="M38.408 5.9104C34.4087 11.0349 30.3801 16.1589 26.1198 21.0711C23.2387 24.3931 20.1351 27.5169 17.1989 30.7899C14.32 33.9992 11.5118 37.2714 8.62913 40.4768C7.4857 41.7483 6.32374 42.9774 5.37357 44.4027" stroke="#DBDBDB" stroke-linecap="round"/>
<path d="M44.8712 2.60693C38.5092 13.2451 31.2271 23.2827 23.7101 33.1199C20.1423 37.7888 16.5299 42.508 12.555 46.8443" stroke="#DBDBDB" stroke-linecap="round"/>
<path d="M45.3021 3.32495C38.4244 12.1677 32.393 21.6176 24.9628 30.0317C20.11 35.5271 14.9342 40.3943 9.10788 44.8334" stroke="#DBDBDB" stroke-linecap="round"/>
<path d="M40.2751 4.04321C35.511 11.1894 31.0112 18.4927 25.8405 25.364C23.0184 29.1143 19.9446 32.6759 16.9595 36.2956C14.106 39.7559 11.2889 43.2464 8.43763 46.7087C7.12533 48.3022 5.74984 49.833 4.65543 51.584" stroke="#DBDBDB" stroke-linecap="round"/>
<path d="M44.2967 4.33044C40.4925 11.3683 36.3212 18.2319 31.9288 24.9171C29.0132 29.3545 25.5645 33.4488 22.21 37.5563C19.0951 41.3705 15.8694 45.1443 12.3236 48.5678C10.6554 50.1784 8.90356 51.6982 7.38437 53.4512" stroke="#DBDBDB" stroke-linecap="round"/>
<path d="M45.4457 3.89954C45.5363 4.05801 45.4991 3.95494 45.2861 4.26658C42.9665 7.66162 47.0408 1.57912 43.3711 7.02743C41.526 9.76675 39.7751 12.5665 37.9611 15.3259C33.7002 21.8076 29.0054 27.9066 24.109 33.9177C20.1693 38.7544 16.3475 43.672 12.3236 48.4401C10.599 50.4836 8.72626 52.5155 7.24072 54.7438" stroke="#DBDBDB" stroke-linecap="round"/>
<path d="M44.8712 3.89954C36.8575 16.3755 27.6621 27.8783 17.8852 38.9926C13.199 44.3198 8.71933 50.0954 3.07553 54.4565" stroke="#DBDBDB" stroke-linecap="round"/>
<path d="M44.4403 -0.409302C39.8136 5.67846 34.6728 11.3578 30.2132 17.5761C24.7762 25.1572 19.6273 32.8196 13.4167 39.8065" stroke="#DBDBDB" stroke-linecap="round"/>
<path d="M53.3452 2.89417C50.0163 7.60591 46.9369 12.4714 43.2514 16.9218C37.7818 23.5266 31.5411 29.5185 25.2022 35.2743C20.2491 39.7717 15.2699 44.3396 10.624 49.1583C9.78422 50.0292 8.72906 51.0437 8.22217 52.1745C8.08092 52.4896 8.23386 52.4061 8.38974 52.3021" stroke="#DBDBDB" stroke-linecap="round"/>
<path d="M52.1963 -0.696533C45.9298 7.85868 39.548 16.3377 32.7666 24.4942C28.0012 30.2258 23.0593 35.7824 18.0926 41.3385C14.659 45.1797 11.0899 48.9435 7.90303 52.9963C7.71069 53.2409 6.09994 55.107 6.5226 55.3183" stroke="#DBDBDB" stroke-linecap="round"/>
<path d="M43.1477 -0.12207C36.1151 13.3571 28.2529 26.6036 19.0501 38.7372C16.2299 42.4556 13.3089 46.1073 10.209 49.5971C8.50833 51.5117 6.70147 53.3304 5.0863 55.3183" stroke="#DBDBDB" stroke-linecap="round"/>
<path d="M48.7492 3.6123C43.6794 11.5649 38.6909 19.5116 32.7506 26.8641C28.2261 32.4642 23.2402 37.6984 18.4437 43.0621C14.4061 47.5772 10.4596 52.2096 6.76198 57.0099C6.1831 57.7615 5.5643 58.4483 5.22995 59.3399" stroke="#DBDBDB" stroke-linecap="round"/>
<path d="M53.058 5.33582C41.6718 19.5149 30.4677 33.8391 17.4463 46.5809C10.605 53.2753 3.17147 60.1164 -5.25488 64.7977" stroke="#DBDBDB" stroke-linecap="round"/>
<path d="M48.4619 6.62842C40.8927 18.7659 33.3416 30.9603 24.1968 41.9928C20.1506 46.8742 15.7992 51.493 11.6932 56.3236" stroke="#DBDBDB" stroke-linecap="round"/>
<path d="M56.6487 7.34668C45.1073 22.2455 34.0417 37.4986 21.8908 51.9192C16.9357 57.7998 11.6072 63.359 5.93211 68.5481C4.5881 69.777 2.65022 71.2555 1.49561 72.4101" stroke="#DBDBDB" stroke-linecap="round"/>
<path d="M48.1746 9.07007C41.8041 18.4705 36.2276 28.4075 29.4073 37.5084C26.847 40.9247 24.0883 44.1979 21.4599 47.5623" stroke="#DBDBDB" stroke-linecap="round"/>
<path d="M54.9252 5.19214C50.2817 11.9251 46.1075 18.9782 41.2326 25.5554C36.0287 32.5765 30.1073 39.0243 24.2846 45.5276C20.0464 50.2611 15.5958 54.7909 11.3341 59.4994C10.4631 60.4618 9.63611 61.4598 8.82862 62.4757C8.43033 62.9768 8.89234 62.6228 9.10789 62.4996" stroke="#DBDBDB" stroke-linecap="round"/>
<path d="M47.7438 7.63379C42.5815 15.6419 38.0523 24.0767 33.0299 32.1782C29.6366 37.6519 26.0128 42.9764 22.3855 48.2964C18.388 54.1594 14.5252 60.121 10.6878 66.0903" stroke="#DBDBDB" stroke-linecap="round"/>
<path d="M48.7492 2.60693C47.1858 5.39105 45.7861 8.27465 44.3127 11.1049C40.19 19.0239 36.0156 26.931 31.4739 34.62C28.0307 40.4492 24.011 45.96 19.9837 51.3925C15.681 57.1965 11.1578 62.8297 6.2832 68.1651C5.13049 69.4267 3.96257 70.6748 2.80422 71.9313C2.59016 72.1635 2.32768 72.4694 2.21375 72.6973" stroke="#DBDBDB" stroke-linecap="round"/>
<path d="M55.9306 6.05396C49.5302 15.1973 43.6969 24.7375 37.4185 33.9656C33.3871 39.8912 28.8745 45.4725 24.125 50.8339C18.6876 56.9718 12.9599 62.8085 6.76198 68.181C4.83012 69.8555 2.80003 71.8296 0.490234 72.9845" stroke="#DBDBDB" stroke-linecap="round"/>
<path d="M56.6487 4.90503C45.1773 22.0631 33.888 39.4125 20.0555 54.7918C12.3957 63.3081 4.52574 71.6598 -4.96762 78.1552" stroke="#DBDBDB" stroke-linecap="round"/>
<path d="M60.6703 4.76123C54.2722 14.4264 47.7921 24.0402 41.3763 33.6943C37.8025 39.0718 34.0476 44.2914 30.0137 49.3337C23.5054 57.4691 16.4178 65.2739 7.52798 70.83" stroke="#DBDBDB" stroke-linecap="round"/>
<path d="M63.3992 2.31958C56.3359 11.3726 49.9792 20.996 43.3392 30.3589C38.5866 37.0605 33.7517 43.7044 28.6413 50.1397C20.0548 60.9523 10.7432 71.4639 0.490234 80.7404" stroke="#DBDBDB" stroke-linecap="round"/>
<path d="M58.8031 1.31421C57.6111 2.69163 56.5663 4.27955 55.5236 5.75071C51.4602 11.4842 47.4681 17.268 43.4509 23.0339C40.4868 27.2883 37.4634 31.48 34.3704 35.6413C28.2745 43.8428 22.3938 52.2686 15.4275 59.7707" stroke="#DBDBDB" stroke-linecap="round"/>
<path d="M68.2826 -2.27637C62.6024 4.53624 57.4942 11.7608 52.0526 18.7571C48.2834 23.6032 44.3728 28.3349 40.3549 32.9763C36.256 37.7112 32.0165 42.2667 27.4284 46.5332C24.0104 49.7115 20.5954 52.8795 17.2947 56.1802" stroke="#DBDBDB" stroke-linecap="round"/>
<path d="M61.9629 2.60693C55.7443 12.1177 49.4444 21.5692 42.8684 30.8378C40.358 34.3761 37.634 37.7315 34.8971 41.0992C29.2109 48.0958 23.4987 55.0804 17.6298 61.9252C13.2758 67.0033 8.49684 71.6086 3.21915 75.7135" stroke="#DBDBDB" stroke-linecap="round"/>
<path d="M61.9629 3.1814C61.5713 3.96467 60.8831 4.56038 60.3511 5.25602C57.0032 9.63401 53.8167 14.1287 50.5924 18.5974C46.8377 23.8013 42.9989 28.9867 38.9506 33.9656C29.4238 45.6822 18.5841 56.2821 7.38437 66.3776" stroke="#DBDBDB" stroke-linecap="round"/>
<path d="M49.3237 4.61768C42.2266 17.7548 34.6482 30.8066 25.7129 42.7987C19.3836 51.2933 12.313 59.0762 4.65543 66.3776" stroke="#DBDBDB" stroke-linecap="round"/>
<path d="M52.3399 4.18677C51.7982 4.80065 51.2365 5.88049 50.8717 6.46885C48.1363 10.8803 45.3959 15.2893 42.5812 19.6507C39.2046 24.8826 35.5549 29.9466 31.6894 34.8274C23.759 44.8405 15.0036 53.8571 4.65543 61.3506" stroke="#DBDBDB" stroke-linecap="round"/>
<path d="M47.6001 6.05396C46.1935 7.4606 45.0239 9.58232 43.9137 11.1607C41.1161 15.1381 38.3267 19.1207 35.4397 23.034C31.6941 28.111 27.9423 33.174 24.0771 38.1628C16.1982 48.332 8.15023 58.3634 -0.0842896 68.2448" stroke="#DBDBDB" stroke-linecap="round"/>
<path d="M46.3075 3.89954C42.2674 10.8325 38.6531 18.0216 34.8492 25.0846C31.8948 30.5704 28.775 35.8914 25.5453 41.2109C21.8098 47.3635 17.7833 53.2249 13.5604 59.0526" stroke="#DBDBDB" stroke-linecap="round"/>
<path d="M62.6811 2.89417C62.8087 3.00354 62.776 2.9448 62.6172 3.2293C61.9393 4.4442 61.1851 5.61496 60.4628 6.80403C58.0451 10.7842 55.675 14.7989 53.1697 18.7251C48.8254 25.5333 43.9697 32.0314 39.2697 38.5937C30.5069 50.8285 21.3445 62.7587 10.6878 73.4154" stroke="#DBDBDB" stroke-linecap="round"/>
<path d="M55.7869 4.18677C54.3987 6.78972 53.1895 9.48975 51.8851 12.1342C48.7934 18.4018 45.5828 24.6081 42.1742 30.71C38.6445 37.0289 34.586 42.9774 30.0456 48.6156C24.8806 55.0297 19.0575 60.9333 12.6188 66.0744C8.53969 69.3315 4.13565 72.1422 -0.227905 74.9953" stroke="#DBDBDB" stroke-linecap="round"/>
<path d="M75.6076 0.0216064C64.1913 11.2444 54.2817 23.821 44.951 36.7903C40.6096 42.8248 36.4087 48.9638 31.9367 54.9034C27.589 60.6779 22.8258 65.8735 17.7256 70.9737" stroke="#DBDBDB" stroke-linecap="round"/>
<path d="M66.1281 2.03247C62.4741 7.68642 58.782 13.3118 55.0289 18.9008C51.9236 23.5251 48.8788 28.2299 45.4378 32.6172C39.7223 39.9044 33.8045 47.0414 27.7795 54.0736C21.947 60.8812 15.9868 67.568 9.74624 74.006C5.68537 78.1953 1.45568 82.2167 -2.66959 86.342" stroke="#DBDBDB" stroke-linecap="round"/>
<path d="M66.4154 8.20837C58.9788 17.3044 51.8851 26.6885 44.8393 36.0881C41.3053 40.8026 37.8924 45.608 34.2747 50.2594C29.5184 56.3746 24.6916 62.4705 19.4331 68.165C15.8397 72.0564 12.1029 75.8153 8.38974 79.5914" stroke="#DBDBDB" stroke-linecap="round"/>
<path d="M64.6919 8.49561C53.3062 25.775 41.9458 43.0194 28.6094 58.8771C22.6281 65.9891 16.3435 72.8898 9.88988 79.5754C6.51245 83.0743 3.06278 86.4952 -0.227905 90.0762" stroke="#DBDBDB" stroke-linecap="round"/>
<path d="M60.2394 14.3844C54.879 21.8344 50.114 29.7448 44.9989 37.3649C41.0214 43.2902 36.7276 48.9294 32.3995 54.6002C24.5206 64.9234 16.4588 75.1213 8.82065 85.6238" stroke="#DBDBDB" stroke-linecap="round"/>
<path d="M72.0169 -0.12207C70.608 1.23554 69.4273 3.06284 68.3225 4.60967C63.5 11.3611 58.8884 18.2616 54.2629 25.1484C49.4081 32.3766 44.5055 39.5743 39.5251 46.7166C30.5987 59.5177 21.1843 72.0159 10.4005 83.3257" stroke="#DBDBDB" stroke-linecap="round"/>
<path d="M73.3095 0.452393C67.7315 9.0518 62.7334 18.0217 57.1673 26.6326C53.2266 32.7291 48.9288 38.5983 44.6159 44.4344C39.4688 51.3993 34.2062 58.3251 28.362 64.7258C24.6885 68.7492 20.7442 72.4795 16.7202 76.1443" stroke="#DBDBDB" stroke-linecap="round"/>
<path d="M76.1821 7.34668C73.9397 9.75254 71.8718 12.3495 69.7906 14.8871C62.8466 23.354 56.0485 31.9379 49.1641 40.4529C43.1673 47.87 36.8786 55.0369 30.5882 62.2045C24.399 69.2569 18.0391 76.1448 11.374 82.7513C8.02846 86.0674 4.37222 89.1809 1.35199 92.8052" stroke="#DBDBDB" stroke-linecap="round"/>
<path d="M58.3722 16.9697C57.3621 18.1926 56.5067 19.6412 55.6672 20.9594C52.1713 26.4491 48.8197 32.0286 45.3979 37.5644C41.0117 44.6603 36.4175 51.5977 31.6654 58.4542C26.9761 65.2203 22.0293 71.6907 16.6404 77.9158C13.2857 81.791 9.74413 85.4944 6.37897 89.3581" stroke="#DBDBDB" stroke-linecap="round"/>
<path d="M66.1281 14.6716C65.2057 16.0553 63.9804 17.4629 63.0162 18.773C59.8972 23.0108 56.8946 27.3454 53.6325 31.4761C47.2269 39.5874 40.0841 47.1248 33.2693 54.8874C25.5793 63.6469 17.8789 72.4028 10.2729 81.2351C6.75273 85.3229 3.19823 89.3177 0.202972 93.8106" stroke="#DBDBDB" stroke-linecap="round"/>
<path d="M59.234 11.9426C53.8952 21.7088 48.6529 31.5211 43.0041 41.115C37.5675 50.3484 31.4999 59.1704 25.1304 67.7819C17.9478 77.4927 10.6054 87.0324 1.06473 94.5286" stroke="#DBDBDB" stroke-linecap="round"/>
<path d="M63.3992 14.9589C57.7357 23.9396 51.9122 32.7992 45.8447 41.514C41.3237 48.0076 36.4995 54.2489 31.6894 60.5288C24.2694 70.216 16.5048 79.9316 11.1187 90.938" stroke="#DBDBDB" stroke-linecap="round"/>
<path d="M67.5644 15.2461C57.5704 29.0115 48.9459 43.7315 39.1181 57.6163C33.9979 64.8502 28.5525 71.8651 22.6807 78.5062C17.0752 84.8461 10.9803 90.6307 4.79907 96.3958" stroke="#DBDBDB" stroke-linecap="round"/>
<path d="M49.3237 35.9285C44.3495 42.9192 39.5075 50.0008 34.4901 56.962C30.332 62.731 26.025 68.3828 21.811 74.1095C16.341 81.5431 10.4699 88.7962 5.66083 96.683" stroke="#DBDBDB" stroke-linecap="round"/>
<path d="M68.7134 16.2515C71.3646 11.7446 62.9652 24.9879 60.1117 29.3695C55.5139 36.4298 50.5326 43.2767 45.6372 50.1317C36.937 62.3147 27.9617 74.507 16.8638 84.6184" stroke="#DBDBDB" stroke-linecap="round"/>
<path d="M72.1605 11.9426C70.234 14.0642 68.4752 16.3761 66.7186 18.6293C62.1176 24.5312 57.6265 30.516 53.2016 36.5509C48.5241 42.9303 43.8946 49.3405 39.1261 55.6534C33.1761 63.5303 27.0013 71.2021 20.2311 78.3944C15.2528 83.6831 9.95828 88.4772 4.36816 93.0923" stroke="#DBDBDB" stroke-linecap="round"/>
<path d="M78.6238 -0.12207C74.0319 5.04379 69.8502 10.5532 65.3781 15.8206C60.2984 21.8036 55.2077 27.7685 50.2493 33.8539C40.8213 45.4246 32.0735 57.595 21.8908 68.532" stroke="#DBDBDB" stroke-linecap="round"/>
<path d="M82.5017 -1.41467C74.7635 8.36561 67.6835 18.6775 60.2314 28.6754C55.3353 35.2441 50.4787 41.8343 45.6532 48.4561C39.2371 57.2605 32.8816 66.1429 25.7767 74.4128C20.6566 80.3725 15.1729 85.7957 9.25153 90.938" stroke="#DBDBDB" stroke-linecap="round"/>
<path d="M77.4747 11.5118C63.4279 28.7165 49.7312 46.2597 34.929 62.8348C24.4027 74.622 13.0942 86.0522 -0.227905 94.6723" stroke="#DBDBDB" stroke-linecap="round"/>
<path d="M85.5179 2.60693C83.5195 4.33888 81.7565 6.3526 80.0121 8.32811C73.3224 15.9045 67.027 23.8121 60.6623 31.6596C55.0017 38.6391 49.0884 45.4092 43.3711 52.3421C31.1737 67.1326 19.1769 82.1811 5.0863 95.2469" stroke="#DBDBDB" stroke-linecap="round"/>
<path d="M77.6184 4.18677C76.0362 6.52465 74.5816 8.96001 73.0622 11.3362C67.9623 19.3118 62.7318 27.2029 57.2631 34.9311C51.5277 43.0362 45.4225 50.903 39.4134 58.8052C28.3959 73.2935 16.0187 86.8334 2.07013 98.5502" stroke="#DBDBDB" stroke-linecap="round"/>
<path d="M84.6561 6.34131C83.4074 7.19979 82.2208 8.17304 81.0575 9.13407C74.4212 14.6162 68.0218 20.3856 61.6278 26.146C52.5575 34.3175 44.0332 43.0915 35.7509 52.0549C27.2987 61.202 19.3044 70.7428 11.0389 80.0543C5.18154 86.6529 -1.12929 92.7923 -7.4093 98.9813" stroke="#DBDBDB" stroke-linecap="round"/>
<path d="M79.3419 14.9589C66.4036 32.4192 52.983 49.4834 38.1526 65.3882C30.8923 73.1744 23.5349 80.9865 15.5711 88.0654" stroke="#DBDBDB" stroke-linecap="round"/>
<path d="M93.4174 -2.99463C77.7705 16.3135 61.2896 35.0027 43.8179 52.6851C34.8741 61.7368 25.842 70.7319 16.5925 79.4717C10.2517 85.463 3.66407 91.1516 -2.95685 96.8267" stroke="#DBDBDB" stroke-linecap="round"/>
<path d="M81.6399 -0.552979C76.4247 7.3832 71.5434 15.5502 66.4154 23.5446C61.5822 31.0794 56.6961 38.5773 51.909 46.142C46.3308 54.9568 40.9133 63.9005 35.0487 72.5296C32.8038 75.8328 30.4662 79.0886 27.971 82.2086C23.9142 87.2812 19.2588 91.6425 14.7094 96.2522" stroke="#DBDBDB" stroke-linecap="round"/>
<path d="M92.412 16.1079C85.5848 25.8856 78.0327 35.211 69.5912 43.6525C61.0898 52.1539 52.5004 60.5908 43.5786 68.6518C35.9211 75.5703 28.1038 82.3011 20.247 88.9911C15.7228 92.8433 11.2122 96.7059 7.24072 101.136" stroke="#DBDBDB" stroke-linecap="round"/>
<path d="M93.4174 12.0864C91.1002 14.6034 89.0131 17.3285 86.9143 20.0259C81.4657 27.0283 76.1702 34.1458 70.804 41.211C63.9778 50.1983 56.6762 58.8291 49.3077 67.3752C38.6608 79.7236 27.3274 91.6225 13.704 100.705" stroke="#DBDBDB" stroke-linecap="round"/>
<path d="M94.5665 14.5281C86.6622 24.3065 78.1032 33.5747 69.5592 42.7908C62.5477 50.354 55.5239 57.9122 48.4619 65.4282C38.4071 76.1294 28.2289 87.2195 16.1457 95.6778" stroke="#DBDBDB" stroke-linecap="round"/>
<path d="M91.4066 8.0647C91.4449 8.37053 91.4321 8.15638 91.0077 8.75092C89.9066 10.2933 88.0414 12.7449 87.034 14.0492C83.1676 19.0548 79.2688 24.0726 75.0011 28.7471C69.28 35.0137 63.027 40.8035 57.0876 46.8602C49.3456 54.7549 41.9135 62.9309 34.4582 71.0934C27.1506 79.0941 19.5077 86.7518 11.5496 94.0978" stroke="#DBDBDB" stroke-linecap="round"/>
<path d="M93.2738 6.05396C90.5677 8.5238 88.0791 11.2586 85.5737 13.9216C79.4563 20.4237 73.4111 26.9937 67.4048 33.5986C62.1065 39.425 56.8704 45.3045 51.526 51.0893C42.0612 61.3338 32.3013 71.2857 22.3217 81.0277" stroke="#DBDBDB" stroke-linecap="round"/>
<path d="M100.886 -2.13281C99.378 -1.6631 97.846 -0.185333 96.7607 0.747723C91.3549 5.39537 86.3526 10.5243 81.5442 15.7808C75.9343 21.9133 71.033 28.6687 65.9845 35.2583C57.2194 46.6991 48.2641 57.9156 38.8388 68.8193" stroke="#DBDBDB" stroke-linecap="round"/>
<path d="M95.8591 8.49561C92.7353 11.8096 90.044 15.4845 87.1936 19.0283C82.9616 24.2897 78.351 29.2572 73.6447 34.0933C67.9666 39.9278 62.0409 45.6433 55.6433 50.6903C53.4596 52.413 51.0099 53.9193 49.0364 55.8928" stroke="#DBDBDB" stroke-linecap="round"/>
<path d="M101.461 2.46326C94.2835 12.2579 86.7638 21.8232 78.52 30.75C72.3245 37.4587 65.4279 43.532 58.7233 49.7168C47.0826 60.4549 35.9318 71.7446 23.7579 81.8894" stroke="#DBDBDB" stroke-linecap="round"/>
<path d="M86.5233 18.8369C79.6265 30.4184 72.0571 41.6821 63.9658 52.4618C58.799 59.3451 52.9884 65.7812 47.2331 72.1707C41.3655 78.685 35.4 85.1099 29.3435 91.4488C27.2492 93.6406 25.0932 95.7906 23.3271 98.2631" stroke="#DBDBDB" stroke-linecap="round"/>
<path d="M92.412 24.0074C89.5804 27.308 86.9576 30.7809 84.2891 34.213C78.594 41.5377 72.9164 48.8763 67.1335 56.1322C62.9973 61.322 58.7164 66.4214 54.215 71.3009C49.5562 76.3511 44.6624 81.2196 39.6208 85.8871C36.2189 89.0366 32.6316 91.9721 29.2158 95.1032" stroke="#DBDBDB" stroke-linecap="round"/>
<path d="M95.5718 25.4437C83.6896 41.0312 71.1925 56.2019 57.9573 70.6626C52.8219 76.2734 47.5676 81.7787 42.2939 87.2595C38.7762 90.9154 35.294 94.5935 31.5138 97.9758" stroke="#DBDBDB" stroke-linecap="round"/>
<path d="M92.412 28.7472C86.0581 36.4696 80.5022 44.8459 74.7697 53.0283C70.5795 59.0094 66.1331 64.705 61.3006 70.1838C51.7364 81.0273 41.1876 90.9654 28.9285 98.6939" stroke="#DBDBDB" stroke-linecap="round"/>
<path d="M92.412 27.8854C90.5073 29.5948 88.7266 31.4553 86.9701 33.3113C80.6892 39.9483 74.7353 46.8696 68.7773 53.7942C63.4317 60.0071 57.9917 66.1545 52.3479 72.0988C43.8341 81.0657 34.9112 89.6779 26.9178 99.1248" stroke="#DBDBDB" stroke-linecap="round"/>
<path d="M92.412 26.0183C87.8858 31.5777 83.8029 37.5081 79.3419 43.126C74.2719 49.5109 69.0367 55.6517 63.3274 61.4704C59.1502 65.7277 54.9459 69.9905 50.4887 73.9581C45.6818 78.2369 40.6747 82.2876 35.679 86.342" stroke="#DBDBDB" stroke-linecap="round"/>
<path d="M95.8591 25.1565C87.0476 33.1332 79.3525 42.3202 71.3147 51.0494C66.3681 56.4215 61.1074 61.5164 55.9306 66.6649C44.9129 77.6225 33.4541 88.136 22.4653 99.1248" stroke="#DBDBDB" stroke-linecap="round"/>
<path d="M94.5664 33.4868C86.096 41.4333 77.7884 49.531 69.639 57.8078C65.1594 62.3575 60.7349 66.9557 56.154 71.4046C46.8557 80.4348 37.5015 89.3861 27.9231 98.1193" stroke="#DBDBDB" stroke-linecap="round"/>
<path d="M100.168 30.7579C86.8109 45.4733 75.8106 62.1233 61.8991 76.3677C52.006 86.4977 41.2338 95.4663 29.6467 103.577" stroke="#DBDBDB" stroke-linecap="round"/>
<path d="M94.7101 36.2158C87.7275 45.705 80.089 54.7496 72.2483 63.537C68.2064 68.0669 63.8357 72.3068 59.6489 76.7029C53.693 82.9566 47.2365 88.9605 42.1423 95.965" stroke="#DBDBDB" stroke-linecap="round"/>
<path d="M99.3062 34.4922C82.509 54.4787 65.3339 74.1705 46.5948 92.3742" stroke="#DBDBDB" stroke-linecap="round"/>
<path d="M105.769 30.7579C98.4365 39.0075 91.5918 47.6884 84.0816 55.7811C78.0914 62.236 71.7145 68.2639 65.2504 74.2373C60.8499 78.3037 56.1395 82.2365 52.1723 86.7409C52.0306 86.9018 50.0632 89.657 51.3345 88.6399" stroke="#DBDBDB" stroke-linecap="round"/>
<path d="M100.455 37.6521C94.2725 45.1936 87.9274 52.6017 81.624 60.0421C77.5981 64.7941 73.4979 69.4245 69.1603 73.8942C62.2131 81.0528 54.902 87.8788 48.1747 95.2469" stroke="#DBDBDB" stroke-linecap="round"/>
<path d="M100.312 39.5193C90.8444 49.9469 81.7279 60.667 72.6871 71.4605C65.9378 79.5184 59.0744 87.4891 52.4835 95.6778" stroke="#DBDBDB" stroke-linecap="round"/>
<path d="M100.742 46.7007C91.8226 56.3066 84.0869 67.0206 74.7378 76.2322C66.569 84.2808 57.2452 91.1034 47.8874 97.6886" stroke="#DBDBDB" stroke-linecap="round"/>
<path d="M97.8699 44.5461C93.5961 51.5552 88.8352 58.2909 83.9859 64.9094C80.296 69.9454 76.2246 74.5068 71.7296 78.8413C67.4491 82.9689 62.973 86.8622 58.46 90.7305C55.7752 93.0317 53.0945 95.3228 50.7599 97.9757" stroke="#DBDBDB" stroke-linecap="round"/>
<path d="M97.0081 51.2968C92.322 56.9982 88.4102 63.336 84.1295 69.338C80.8311 73.9627 76.9167 78.2351 73.118 82.448C69.0595 86.9491 64.7626 91.0822 60.0399 94.8798C58.0722 96.4621 56.114 98.0466 54.207 99.6993" stroke="#DBDBDB" stroke-linecap="round"/>
<path d="M102.322 52.0149C97.3754 57.6521 92.7837 63.5932 88.0234 69.3859C84.1372 74.1149 79.8453 78.2765 75.3203 82.3842C68.3154 88.7431 60.3286 94.0086 53.6325 100.705" stroke="#DBDBDB" stroke-linecap="round"/>
<path d="M93.7047 54.8875C92.6943 56.4723 91.9037 58.2077 91.0157 59.8586C88.3614 64.7929 85.5455 69.6595 82.3421 74.2612C79.515 78.3225 75.9895 81.9012 72.4159 85.3046C66.4483 90.988 59.7821 95.9583 53.058 100.705" stroke="#DBDBDB" stroke-linecap="round"/>
<path d="M94.7101 64.9414C93.8953 65.6935 93.2002 66.5947 92.4918 67.4389C90.1395 70.2423 87.7872 73.0471 85.462 75.8731C83.2754 78.5307 80.9141 81.0217 78.544 83.5173C72.1022 90.2998 64.5634 95.8573 57.7977 102.285" stroke="#DBDBDB" stroke-linecap="round"/>
<path d="M96.0027 68.532C93.4325 71.9919 91.3145 75.8309 88.949 79.4317C86.4244 83.2747 83.9171 87.0415 80.7782 90.4113C76.8272 94.6528 72.6658 98.663 68.1389 102.285" stroke="#DBDBDB" stroke-linecap="round"/>
<path d="M97.2954 66.8086C94.8055 70.996 92.6632 75.2452 89.6352 79.1127C87.3791 81.9943 84.6571 84.2262 81.7197 86.3739C76.6884 90.0528 71.3528 93.2215 65.8409 96.1087" stroke="#DBDBDB" stroke-linecap="round"/>
<path d="M100.168 69.9683C93.6696 75.1417 87.8332 81.0947 81.5761 86.5493C77.2698 90.3032 72.7151 93.7504 68.5698 97.6884" stroke="#DBDBDB" stroke-linecap="round"/>
<path d="M96.7209 64.5105C93.5371 69.6842 90.3595 75.1155 86.3637 79.7191C83.2857 83.2652 79.5438 86.3572 75.9826 89.398C73.027 91.9217 69.9059 94.2417 66.95 96.7629C65.6896 97.838 64.3363 98.9628 63.5428 100.417" stroke="#DBDBDB" stroke-linecap="round"/>
<path d="M92.412 71.5483C86.7259 77.7652 81.38 84.2923 75.7991 90.603C73.1678 93.5783 70.021 96.2184 67.8517 99.5558" stroke="#DBDBDB" stroke-linecap="round"/>
<path d="M98.7317 73.4154C95.8203 76.2029 93.5034 79.7481 90.9598 82.8629C88.6843 85.6494 86.182 88.1459 83.5869 90.6348C80.0929 93.9857 76.1566 96.8523 72.735 100.274" stroke="#DBDBDB" stroke-linecap="round"/>
<path d="M97.5826 73.7026C95.4376 76.9477 93.0178 80.0318 90.6247 83.0943C88.4559 85.8697 86.2845 88.6922 83.7624 91.1614C80.1938 94.6552 76.338 97.8263 72.735 101.279" stroke="#DBDBDB" stroke-linecap="round"/>
<path d="M92.6993 81.1714C89.9661 84.7455 87.694 88.6794 85.1987 92.4222C83.5573 94.8845 81.5672 96.8996 79.4855 98.9812" stroke="#DBDBDB" stroke-linecap="round"/>
<path d="M94.4228 81.4585C91.4822 85.4016 88.9511 89.5839 86.3318 93.7387C84.6828 96.3544 82.7682 98.6737 80.9218 101.136" stroke="#DBDBDB" stroke-linecap="round"/>
<path d="M94.8537 85.1929C92.4284 88.184 90.2282 91.3186 87.5925 94.1457C86.2313 95.6057 84.8474 97.071 83.3635 98.4066" stroke="#DBDBDB" stroke-linecap="round"/>
<path d="M101.748 80.7405C100.164 83.0373 98.1011 85.0731 96.4177 87.3154C95.2217 88.9084 93.8897 90.3257 92.5557 91.7998C90.7037 93.8461 88.7577 95.7414 86.8105 97.6886" stroke="#DBDBDB" stroke-linecap="round"/>
<path d="M99.8807 85.7673C99.1929 87.0856 98.0766 88.2786 97.2156 89.4857C96.3329 90.7231 95.4431 91.7848 94.3749 92.853C92.5 94.7279 90.7047 96.5096 88.3904 97.8321" stroke="#DBDBDB" stroke-linecap="round"/>
<path d="M99.8807 90.0762C96.2706 93.4738 92.7532 96.9164 89.2522 100.417" stroke="#DBDBDB" stroke-linecap="round"/>
<path d="M98.7317 93.3796C97.0252 95.4739 95.669 97.8171 94.0717 99.9865C93.4455 100.837 92.7019 101.474 92.2684 102.428" stroke="#DBDBDB" stroke-linecap="round"/>
<path d="M93.561 -0.983887C93.9318 1.33332 95.3403 3.97629 96.6411 5.94217C97.6065 7.40124 98.6256 8.64409 100.168 9.50094" stroke="#DBDBDB" stroke-linecap="round"/>
<path d="M88.2468 0.0216064C90.2454 2.98924 92.52 6.2355 95.4522 8.36798C96.4931 9.12504 97.4476 10.2235 98.588 10.7937" stroke="#DBDBDB" stroke-linecap="round"/>
<path d="M86.0924 -3.13818C90.5405 2.46642 95.6372 7.52854 100.886 12.3736" stroke="#DBDBDB" stroke-linecap="round"/>
<path d="M86.9542 -1.7019C89.0934 0.686934 91.0648 3.21847 93.2259 5.5912C94.2479 6.71325 95.3706 7.75276 96.3698 8.89464C96.7928 9.37805 97.3267 10.3785 97.8699 10.6501" stroke="#DBDBDB" stroke-linecap="round"/>
<path d="M80.06 -0.552979C86.6397 4.95247 93.355 11.1621 99.3062 17.1132" stroke="#DBDBDB" stroke-linecap="round"/>
<path d="M79.1983 0.165283C84.0683 5.54255 88.4297 11.4075 93.5611 16.5389" stroke="#DBDBDB" stroke-linecap="round"/>
<path d="M71.2987 0.596191C75.4891 4.09525 79.6409 7.70562 84.0816 10.8895C85.9493 12.2286 87.9741 13.3553 89.8906 14.6238C92.8385 16.5752 95.8955 18.4667 99.1625 19.8423" stroke="#DBDBDB" stroke-linecap="round"/>
<path d="M71.8733 3.75586C76.5044 8.07825 81.5366 11.9452 86.5153 15.8525C88.2946 17.2489 90.2461 18.5438 92.2684 19.5549" stroke="#DBDBDB" stroke-linecap="round"/>
<path d="M66.8463 -0.409302C74.207 6.86774 81.7686 14.3339 90.6885 19.6986C93.25 21.2391 95.9417 22.9344 98.7317 24.0074" stroke="#DBDBDB" stroke-linecap="round"/>
<path d="M66.2718 2.17603C68.278 5.30439 70.5853 8.25823 72.9584 11.1129C75.6672 14.3713 78.5323 17.9555 81.9751 20.5045C83.8886 21.9213 85.9829 23.5401 88.2468 24.2947" stroke="#DBDBDB" stroke-linecap="round"/>
<path d="M55.2124 0.165283C64.4533 7.13646 73.0379 14.9896 82.0469 22.26C84.3782 24.1414 86.7886 26.0883 89.5395 27.3109" stroke="#DBDBDB" stroke-linecap="round"/>
<path d="M58.9467 2.46326C64.552 7.70392 70.3973 12.6879 76.4534 17.4005C79.7291 19.9496 83.0923 22.4828 86.635 24.6617C89.6542 26.5187 92.6534 28.5213 95.8591 30.0398" stroke="#DBDBDB" stroke-linecap="round"/>
<path d="M70.1497 10.3628C77.5498 15.9128 84.988 21.496 92.9865 26.1619" stroke="#DBDBDB" stroke-linecap="round"/>
<path d="M61.3884 -0.409302C65.8264 3.03768 70.0575 6.69447 74.6421 9.96382C79.0934 13.1381 83.7058 16.0297 88.4304 18.773C91.8523 20.7599 95.7026 22.2024 98.8753 24.5819" stroke="#DBDBDB" stroke-linecap="round"/>
<path d="M65.6973 -0.265625C69.3104 3.93871 73.8173 7.43734 78.2168 10.7618C82.2538 13.8123 86.4178 16.5195 90.88 18.8848C93.2445 20.138 95.6606 21.2586 98.1252 22.2999C99.2601 22.7794 100.398 23.3086 101.604 23.5766" stroke="#DBDBDB" stroke-linecap="round"/>
<path d="M71.0115 3.03784C77.5603 7.75848 84.1097 12.4778 90.497 17.4166C92.2006 18.7339 93.8341 20.0258 95.1569 21.7334C95.9322 22.7342 96.5082 23.53 95.2846 24.2948" stroke="#DBDBDB" stroke-linecap="round"/>
<path d="M47.0256 -1.55835C55.3405 7.82002 65.2793 15.5628 76.0863 21.837C80.9406 24.6552 86.0601 26.9276 90.9757 29.6089" stroke="#DBDBDB" stroke-linecap="round"/>
<path d="M47.8874 5.62305C59.1816 14.6286 69.6778 24.6375 81.4644 33.024C84.2782 35.0262 87.2037 37.1815 90.4012 38.5138" stroke="#DBDBDB" stroke-linecap="round"/>
<path d="M41.5678 4.47412C55.4772 14.1929 69.2198 24.154 83.2757 33.6625C87.0125 36.1903 90.8108 38.9341 94.8537 40.9556" stroke="#DBDBDB" stroke-linecap="round"/>
<path d="M32.0883 2.46326C46.2099 14.0243 60.3229 25.7209 75.1927 36.3195C80.318 39.9727 85.508 43.5762 90.9758 46.7006" stroke="#DBDBDB" stroke-linecap="round"/>
<path d="M31.3702 5.47949C49.1504 16.681 66.7461 28.1706 84.704 39.0884C89.5134 42.0124 94.4374 44.7922 99.1625 47.8497" stroke="#DBDBDB" stroke-linecap="round"/>
<path d="M34.53 4.61768C42.1811 9.90387 50.4762 14.3353 58.468 19.0762C63.9875 22.3505 69.5581 25.541 75.1448 28.6993C81.756 32.4368 88.485 35.9534 95.133 39.623C97.4757 40.9161 99.9212 42.1042 102.179 43.5408" stroke="#DBDBDB" stroke-linecap="round"/>
<path d="M22.0344 -3.28186C33.3614 2.84712 44.3933 9.50402 55.3401 16.2834C61.9175 20.3569 68.3817 24.618 75.0809 28.4918C83.3418 33.2686 92.0358 37.2319 100.312 41.9609" stroke="#DBDBDB" stroke-linecap="round"/>
<path d="M28.4977 -1.98926C34.2231 2.2788 40.0521 6.40411 45.7489 10.7138C50.9125 14.6201 55.9908 18.637 61.1331 22.5711C69.3024 28.8209 77.4865 35.2358 86.6669 39.9501" stroke="#DBDBDB" stroke-linecap="round"/>
<path d="M32.8065 1.45789C42.8306 6.70367 52.5611 12.567 62.2263 18.4379C68.554 22.2816 74.8297 26.2031 80.842 30.5266C84.76 33.344 89.4912 36.3998 91.9811 40.6683" stroke="#DBDBDB" stroke-linecap="round"/>
<path d="M43.2913 -0.552979C53.3715 5.32713 62.9818 12.0529 72.6393 18.5894C78.9907 22.8882 85.3619 27.1355 91.7896 31.3164C95.0657 33.4473 98.4243 35.4847 101.556 37.8276C102.946 38.8673 104.156 40.0014 105.195 41.3863" stroke="#DBDBDB" stroke-linecap="round"/>
<path d="M13.704 2.03247C32.5933 11.2073 50.051 23.2327 67.1974 35.2903C71.8069 38.5318 76.4719 41.6977 81.0654 44.9612C82.3197 45.8523 83.5661 46.7597 84.6561 47.8497" stroke="#DBDBDB" stroke-linecap="round"/>
<path d="M4.08093 -4C20.8284 10.654 37.311 25.5183 56.6647 36.6866C64.5492 41.2364 72.6429 45.2912 80.9298 49.0465C84.9799 50.8819 89.0093 52.7552 92.9865 54.7438" stroke="#DBDBDB" stroke-linecap="round"/>
<path d="M14.1349 5.47949C17.0113 6.94016 19.7761 8.65637 22.5211 10.3389C29.4018 14.5564 36.1653 18.9534 42.9402 23.3372C49.1796 27.3744 55.4608 31.3777 61.8672 35.1466C71.8341 41.0102 82.0819 46.4198 92.1248 52.1585" stroke="#DBDBDB" stroke-linecap="round"/>
<path d="M9.10788 2.75049C29.6372 12.4887 49.7641 23.1562 69.7268 34.0055C73.6141 36.1181 77.5383 38.2289 81.1931 40.7321C82.5164 41.6384 83.7281 42.6373 84.7997 43.828" stroke="#DBDBDB" stroke-linecap="round"/>
<path d="M13.1295 1.17065C29.1607 11.2773 44.4465 22.534 60.4468 32.697C69.1902 38.2505 78.0969 43.5407 86.8105 49.1423" stroke="#DBDBDB" stroke-linecap="round"/>
<path d="M8.24612 8.20837C28.7771 17.9189 48.943 28.3582 69.5193 37.9633C75.5643 40.7851 81.8538 43.5495 87.4409 47.2352C88.5535 47.9692 89.6939 48.7998 90.5608 49.8285C91.189 50.5739 90.8792 50.622 90.4012 51.1531" stroke="#DBDBDB" stroke-linecap="round"/>
<path d="M10.1133 12.6609C24.74 18.8108 39.1354 25.5212 53.6166 32.0028C60.9906 35.3033 68.4607 38.2651 75.9746 41.2269C83.1081 44.0387 90.3363 46.7479 97.3113 49.9403C99.114 50.7653 100.956 51.6308 102.61 52.7331" stroke="#DBDBDB" stroke-linecap="round"/>
<path d="M6.52258 16.826C23.4838 23.9898 40.0489 32.0821 56.537 40.2693C62.539 43.2496 68.4924 46.3567 74.283 49.7328C76.4394 50.99 78.5524 52.307 80.4909 53.882" stroke="#DBDBDB" stroke-linecap="round"/>
<path d="M-8.55832 12.5172C4.42181 18.2974 16.7899 25.6091 29.0881 32.6889C35.2981 36.2639 41.4197 39.9898 47.6161 43.5887C53.8118 47.1872 60.0442 50.6997 66.3037 54.1852C68.765 55.5558 71.1995 56.9756 73.7404 58.1909" stroke="#DBDBDB" stroke-linecap="round"/>
<path d="M12.2677 12.3735C22.4239 16.985 32.2162 22.4629 41.871 28.029C48.3131 31.7429 54.6659 35.6144 60.8618 39.7267C67.2774 43.9847 73.5817 48.361 79.4855 53.3075" stroke="#DBDBDB" stroke-linecap="round"/>
<path d="M9.82602 3.03784C21.0849 13.7771 33.5326 23.476 47.0256 31.2447C56.7849 36.8637 67.0936 41.3292 77.3311 45.9826" stroke="#DBDBDB" stroke-linecap="round"/>
<path d="M-1.95145 4.90503C-0.649101 5.3949 -0.698919 5.34653 0.953027 6.21364C6.06302 8.89587 10.9726 11.9344 15.8185 15.0627C21.5766 18.7798 27.1004 22.7712 32.6708 26.7524C41.6719 33.1855 50.9525 39.1531 60.5267 44.6899" stroke="#DBDBDB" stroke-linecap="round"/>
<path d="M-3.24411 2.46326C7.60006 13.0461 19.5349 22.3861 32.1681 30.726C38.4246 34.8563 45.0614 39.3068 52.3399 41.3864" stroke="#DBDBDB" stroke-linecap="round"/>
<path d="M7.24072 2.31958C18.9568 9.80645 30.5764 17.5883 41.7114 25.9224C43.833 27.5103 45.9051 29.1523 47.8475 30.9574C48.4318 31.5004 49.0364 31.9314 49.0364 32.625" stroke="#DBDBDB" stroke-linecap="round"/>
<path d="M1.78287 0.883301C12.2802 7.97123 22.7302 15.1984 33.6204 21.6774C38.2846 24.4523 42.8867 27.4676 47.7438 29.8961" stroke="#DBDBDB" stroke-linecap="round"/>
<path d="M0.777466 1.88867C11.675 9.3674 22.1322 17.353 32.4554 25.5873C37.1913 29.3649 42.0772 33.044 46.5947 37.0775" stroke="#DBDBDB" stroke-linecap="round"/>
<path d="M-11 9.50098C-2.73363 15.6854 6.21364 21.0414 14.9168 26.5767C21.8912 31.0125 28.9403 35.3288 35.9583 39.6947C42.0372 43.4764 48.1496 47.2028 54.223 50.9935C57.3551 52.9483 60.4773 54.936 63.6865 56.7545" stroke="#DBDBDB" stroke-linecap="round"/>
<path d="M9.82602 17.1133C15.2248 21.8223 20.6971 26.4411 26.3432 30.8537C32.6923 35.8156 39.215 40.7839 46.1559 44.9132C51.9337 48.3507 58.1517 51.011 64.4046 53.4511" stroke="#DBDBDB" stroke-linecap="round"/>
<path d="M3.65002 13.2354C17.7754 21.874 30.9525 32.0248 45.2702 40.3491C54.2212 45.5532 63.1648 50.4884 72.735 54.4565" stroke="#DBDBDB" stroke-linecap="round"/>
<path d="M1.63925 17.1133C14.1821 25.3558 26.5727 33.8801 39.3017 41.8332C50.0972 48.5783 60.8796 55.3244 71.586 62.2124" stroke="#DBDBDB" stroke-linecap="round"/>
<path d="M1.06473 11.7991C21.9111 25.149 42.9634 38.1783 64.1892 50.9137C70.3751 54.6253 76.6943 58.1699 82.765 62.0688C83.9538 62.8323 85.1617 63.6175 86.236 64.5424C86.6342 64.8852 86.5889 64.8708 86.236 64.9414" stroke="#DBDBDB" stroke-linecap="round"/>
<path d="M24.6197 25.1565C37.3203 33.0644 50.1341 40.7739 63.0481 48.3284C68.8204 51.7052 74.5327 55.2034 80.4271 58.3664C86.1106 61.4163 91.9283 64.2454 97.7901 66.9362C99.7002 67.8131 101.624 68.7302 103.615 69.3939" stroke="#DBDBDB" stroke-linecap="round"/>
<path d="M37.1153 28.6035C51.2052 36.3696 65.2318 44.3066 79.0546 52.5415C85.2132 56.2104 91.3874 59.9533 97.1518 64.2232" stroke="#DBDBDB" stroke-linecap="round"/>
<path d="M55.4997 31.4761C68.9635 37.8874 81.43 46.1479 94.6861 52.9325C100.714 56.0178 106.806 59.0556 112.376 62.9306" stroke="#DBDBDB" stroke-linecap="round"/>
<path d="M29.3594 27.1672C43.5345 35.5384 57.8756 43.5553 72.5754 50.9616C79.5445 54.4729 86.5643 58.0535 92.9865 62.4997" stroke="#DBDBDB" stroke-linecap="round"/>
<path d="M11.9804 18.406C38.4285 33.1728 62.1044 52.0656 86.5233 69.8248" stroke="#DBDBDB" stroke-linecap="round"/>
<path d="M5.37357 24.2947C15.5929 32.646 26.3376 40.4255 37.0196 48.1688C43.5874 52.9298 50.4158 57.2413 57.3988 61.3666C65.8471 66.3576 74.365 71.3315 83.0443 75.9129C87.0436 78.024 91.124 79.9775 95.2846 81.7458" stroke="#DBDBDB" stroke-linecap="round"/>
<path d="M10.2569 35.9285C19.8385 38.6057 28.7185 43.8606 37.4185 48.5438C43.925 52.0462 50.4865 55.4785 57.1594 58.6536C64.5379 62.1645 72.1569 65.1674 79.4855 68.7793C82.2668 70.1501 84.9894 71.6378 87.5287 73.4153" stroke="#DBDBDB" stroke-linecap="round"/>
<path d="M13.1295 36.7903C22.4793 39.9474 31.5977 43.9498 40.722 47.69C48.8023 51.0023 56.9102 54.1818 65.0429 57.361C72.7232 60.3633 80.4031 63.4931 87.784 67.1835C90.4173 68.5002 93.0434 69.8815 95.1409 71.9791" stroke="#DBDBDB" stroke-linecap="round"/>
<path d="M24.3324 34.7795C43.3164 43.1193 61.0216 53.9393 79.3738 63.5051C85.6602 66.7818 91.9218 70.088 98.0135 73.7186C100.825 75.3942 103.523 77.1023 106.057 79.1605" stroke="#DBDBDB" stroke-linecap="round"/>
<path d="M23.3271 36.5031C30.4548 41.0143 37.4721 45.7055 44.584 50.2434C49.9557 53.671 55.3362 57.0818 60.6384 60.6166C66.2984 64.3899 72.0135 68.1203 77.4987 72.1467C80.484 74.3381 83.2636 76.6328 85.6615 79.4478" stroke="#DBDBDB" stroke-linecap="round"/>
<path d="M14.2785 31.1888C17.5089 32.8041 20.619 34.649 23.726 36.4871C31.1332 40.8692 38.4432 45.4082 45.749 49.9562C52.4401 54.1216 59.1762 58.2121 65.8409 62.4199C73.7234 67.3966 81.5856 72.4041 89.4118 77.4689C91.382 78.7439 93.3041 80.0044 95.141 81.4586" stroke="#DBDBDB" stroke-linecap="round"/>
<path d="M4.94269 32.6251C13.8343 37.4921 22.3869 42.9417 30.9074 48.4242C37.6179 52.742 44.3864 56.9665 51.0951 61.2869C60.1344 67.1081 69.4135 72.5291 78.4801 78.2988" stroke="#DBDBDB" stroke-linecap="round"/>
<path d="M-6.11667 21.5658C2.17889 26.709 9.87198 32.8863 17.6298 38.7852C24.6954 44.1577 31.7983 49.4811 38.9107 54.7917C50.9539 63.784 62.9306 73.1087 76.3257 80.0223" stroke="#DBDBDB" stroke-linecap="round"/>
<path d="M12.1241 34.4922C27.9709 43.5596 41.9702 55.5537 56.9998 65.8669C66.6126 72.4631 76.3382 78.7592 86.8105 83.9002" stroke="#DBDBDB" stroke-linecap="round"/>
<path d="M0.777466 26.3054C11.7479 33.103 22.4849 40.2854 33.3331 47.2751C40.8766 52.1355 48.5472 56.7227 56.2896 61.2549C68.2648 68.2647 80.389 75.1173 91.9811 82.7512" stroke="#DBDBDB" stroke-linecap="round"/>
<path d="M-3.10046 28.46C7.7369 34.4904 17.8477 41.962 27.8274 49.286C34.5882 54.2476 41.2254 59.3842 47.9353 64.4148C57.6649 71.7094 67.5642 78.7258 77.4747 85.7675" stroke="#DBDBDB" stroke-linecap="round"/>
<path d="M4.79907 40.0938C6.68685 41.0107 8.51791 42.0751 10.3287 43.1259C18.2905 47.7461 26.0552 52.6895 33.9475 57.4248C41.0469 61.6845 48.3568 65.7271 55.755 69.4417C64.7875 73.9769 74.1462 77.8582 83.4273 81.8495C87.2737 83.5037 91.1892 85.0242 94.8537 87.06" stroke="#DBDBDB" stroke-linecap="round"/>
<path d="M6.09171 46.7007C25.2004 56.108 43.554 66.9522 62.2661 77.1019C69.7643 81.169 77.4715 85.3055 84.3689 90.3635" stroke="#DBDBDB" stroke-linecap="round"/>
<path d="M1.35199 36.2158C20.3214 47.8274 37.9128 61.4755 56.7445 73.2878C68.5609 80.6997 80.7301 87.5663 93.1302 93.9542" stroke="#DBDBDB" stroke-linecap="round"/>
<path d="M6.80984 44.4026C17.0894 50.0973 26.4574 57.5357 35.9025 64.4786C40.719 68.0192 45.5779 71.4892 50.5206 74.8517C56.0585 78.6191 61.5991 82.4104 67.341 85.8632C70.3088 87.6478 73.3371 89.3322 76.3257 91.0816" stroke="#DBDBDB" stroke-linecap="round"/>
<path d="M6.37897 53.4512C7.92269 54.2763 9.41127 55.258 10.8793 56.1961C17.0941 60.1674 23.1915 64.3139 29.3435 68.3805C36.8179 73.3212 44.7046 77.6736 52.5394 82.0092C60.215 86.2567 68.0338 90.1927 75.8948 94.0819C79.0843 95.6598 82.1977 97.3929 85.3743 98.9812" stroke="#DBDBDB" stroke-linecap="round"/>
<path d="M2.78827 49.8605C6.23384 51.4609 9.54759 53.324 12.8502 55.1986C19.7494 59.1149 26.5296 63.222 33.2533 67.4309C39.1265 71.1074 44.972 74.7815 50.9754 78.2429C60.5966 83.7903 70.0691 89.5977 79.6292 95.2469" stroke="#DBDBDB" stroke-linecap="round"/>
<path d="M2.78827 44.5461C11.9813 50.3759 20.5645 57.157 29.2956 63.6407C35.9485 68.5811 42.6878 73.3919 49.6109 77.9476C57.9676 83.4466 66.3298 88.9255 74.9852 93.9461C78.9692 96.2571 83.0156 98.4613 86.9542 100.848" stroke="#DBDBDB" stroke-linecap="round"/>
<path d="M5.66083 54.4565C21.3547 64.5703 36.0597 76.1314 51.7893 86.1983C58.3932 90.4248 65.0444 94.589 71.8812 98.4306C75.3274 100.367 78.7675 102.351 82.3581 104.008" stroke="#DBDBDB" stroke-linecap="round"/>
<path d="M7.6716 55.7493C21.9193 65.712 35.5623 76.6476 50.5206 85.56C61.9538 92.3721 73.9589 97.988 85.8051 104.008" stroke="#DBDBDB" stroke-linecap="round"/>
<path d="M-8.55832 54.1693C1.39378 60.2661 11.1901 66.6116 20.7098 73.3676C25.1943 76.5501 29.6794 79.7291 34.2428 82.7991C44.5772 89.7516 55.4625 95.799 66.4154 101.71" stroke="#DBDBDB" stroke-linecap="round"/>
<path d="M-5.68576 56.0364C3.34397 61.7394 12.1452 67.8072 21.1567 73.543C26.9601 77.2369 32.87 80.7728 38.7431 84.355C46.874 89.3143 54.9023 94.4176 62.8247 99.6992" stroke="#DBDBDB" stroke-linecap="round"/>
<path d="M1.78287 58.9089C9.88901 64.0997 17.4657 70.1238 25.1623 75.8889C31.4832 80.6236 37.9956 85.0936 44.5361 89.5176C51.8374 94.4562 59.1688 99.348 66.559 104.152" stroke="#DBDBDB" stroke-linecap="round"/>
<path d="M0.346588 64.5105C8.3056 68.9069 15.8842 74.1229 23.4547 79.1446C27.9868 82.1508 32.3868 85.347 36.9078 88.3687C43.9069 93.0466 50.9202 97.7771 58.3722 101.71" stroke="#DBDBDB" stroke-linecap="round"/>
<path d="M5.37357 69.5375C6.83376 70.3147 8.20272 71.3841 9.53079 72.3382C13.4147 75.1285 17.254 77.98 21.1248 80.7883C25.0567 83.641 29.0132 86.4769 33.1735 88.9911C39.2743 92.6779 45.6083 96.0764 51.909 99.4121" stroke="#DBDBDB" stroke-linecap="round"/>
<path d="M4.94269 71.8354C15.2739 78.1633 25.0446 85.3403 35.4077 91.6242C41.9619 95.5983 48.5009 99.587 55.2124 103.29" stroke="#DBDBDB" stroke-linecap="round"/>
<path d="M-3.53134 73.8463C2.35176 77.9065 8.26129 81.9221 14.2466 85.8313C19.1215 89.0152 24.1437 91.9602 29.0243 95.1351C33.2005 97.8518 37.2586 100.759 41.5678 103.266C44.3842 104.905 47.2726 106.43 50.1855 107.886" stroke="#DBDBDB" stroke-linecap="round"/>
<path d="M-1.37695 72.2664C7.53579 78.8723 15.7718 86.4639 25.0665 92.5498C29.8004 95.6494 34.8371 98.2535 39.7006 101.136" stroke="#DBDBDB" stroke-linecap="round"/>
<path d="M-7.55295 76.1443C-0.368963 82.0923 6.67829 88.3005 14.3104 93.6828C17.3935 95.8571 20.4905 98.1014 23.7579 99.9865" stroke="#DBDBDB" stroke-linecap="round"/>
<path d="M-0.227905 82.7512C7.26662 88.1166 14.8612 93.2058 22.7845 97.9119C26.4926 100.114 30.2584 102.221 33.9555 104.439" stroke="#DBDBDB" stroke-linecap="round"/>
<path d="M-2.66959 82.8948C1.89828 88.2425 7.00706 93.2089 13.1454 96.7309C17.5128 99.2368 22.2341 100.817 27.0614 102.141" stroke="#DBDBDB" stroke-linecap="round"/>
<path d="M5.0863 79.4478C12.8589 87.7011 20.4755 96.6936 30.7957 101.854" stroke="#DBDBDB" stroke-linecap="round"/>
<path d="M6.95346 80.884C10.4773 84.4079 14.0604 87.865 17.7415 91.2252C20.1288 93.4044 22.5091 95.6579 25.1782 97.497C27.916 99.3833 30.7113 101.332 33.8119 102.572" stroke="#DBDBDB" stroke-linecap="round"/>
<path d="M6.09171 72.9846C15.2147 79.8269 24.7987 86.1302 34.3704 92.3265C38.5431 95.0277 42.9625 97.5706 47.4565 99.6994" stroke="#DBDBDB" stroke-linecap="round"/>
<path d="M7.95886 72.41C15.8023 76.6394 23.3136 81.5488 30.9712 86.1026C39.2721 91.0388 47.6688 95.8077 56.0742 100.561" stroke="#DBDBDB" stroke-linecap="round"/>
<path d="M21.4599 69.9683C31.2712 75.9169 40.4024 82.9456 49.962 89.2782C54.1716 92.0668 58.681 94.4198 63.1119 96.8267" stroke="#DBDBDB" stroke-linecap="round"/>
<path d="M9.6824 63.0742C16.7547 67.7187 24.2003 71.8531 31.5059 76.1124C36.9251 79.272 42.3375 82.423 47.9512 85.2248C55.4214 88.9533 63.0009 92.4666 70.5806 95.965" stroke="#DBDBDB" stroke-linecap="round"/>
<path d="M18.0128 63.0742C30.1063 71.0559 41.9309 79.4822 54.3028 87.0361C59.2416 90.0517 64.101 93.1757 69.0007 96.2522" stroke="#DBDBDB" stroke-linecap="round"/>
<path d="M-0.371552 75.4263C9.49518 81.1525 19.3854 86.8503 29.136 92.7733C33.6812 95.5343 38.2736 98.272 43.0041 100.705" stroke="#DBDBDB" stroke-linecap="round"/>
<path d="M4.65543 80.0222C7.36495 82.5603 10.5508 84.6721 13.6242 86.7248C18.128 89.733 22.7598 92.6559 27.6518 94.9994C31.9079 97.0382 36.2149 98.825 40.706 100.274" stroke="#DBDBDB" stroke-linecap="round"/>
<path d="M2.64465 77.5806C13.1025 82.9739 23.5165 88.6452 34.4183 93.1083C38.6873 94.856 43.1874 96.0774 47.6002 97.4012" stroke="#DBDBDB" stroke-linecap="round"/>
<path d="M15.2839 78.7296C25.4224 84.6581 35.86 90.061 45.9803 96.0208C50.6791 98.7879 55.4825 101.333 60.383 103.721" stroke="#DBDBDB" stroke-linecap="round"/>
<path d="M23.6143 71.261C36.3628 77.8314 48.6792 85.2462 61.931 90.8103C66.4635 92.7134 71.1238 94.3124 75.7512 95.965" stroke="#DBDBDB" stroke-linecap="round"/>
<path d="M19.1618 64.2231C32.6087 71.6518 45.7973 79.6458 59.7128 86.1822C65.4162 88.8613 71.1616 91.4839 76.7566 94.385" stroke="#DBDBDB" stroke-linecap="round"/>
<path d="M13.4167 52.3021C20.2799 56.1754 26.7888 60.777 33.389 65.069C39.1014 68.7838 44.7969 72.523 50.6482 76.0167C59.3286 81.1995 68.2188 86.0087 77.0438 90.938" stroke="#DBDBDB" stroke-linecap="round"/>
<path d="M26.6305 51.1531C41.3169 61.6551 56.4798 71.5521 72.0967 80.6127C78.3288 84.2285 84.5037 88.1301 90.114 92.6615" stroke="#DBDBDB" stroke-linecap="round"/>
<path d="M43.1477 50.7222C54.8839 59.75 66.3021 69.2859 78.8153 77.2454C83.6992 80.3521 88.7638 83.1764 93.4174 86.6291" stroke="#DBDBDB" stroke-linecap="round"/>
<path d="M55.2124 55.3184C67.1016 62.6656 80.0333 68.0473 92.42 74.4448C96.7643 76.6886 100.977 79.0281 104.333 82.6076" stroke="#DBDBDB" stroke-linecap="round"/>
<path d="M64.4046 59.9144C70.3654 67.2633 77.3385 74.2393 84.9913 79.8308C88.5952 82.464 92.4987 84.7155 96.29 87.0601" stroke="#DBDBDB" stroke-linecap="round"/>
<path d="M62.2502 70.2556C72.3514 77.3322 83.1661 83.0811 94.2792 88.3527" stroke="#DBDBDB" stroke-linecap="round"/>
<path d="M93.8483 74.4209C93.5406 79.1897 91.2018 83.7862 88.8373 87.874C87.0341 90.9915 84.7082 94.6334 81.7836 96.8268" stroke="#DBDBDB" stroke-linecap="round"/>
<path d="M96.8645 76.0007C94.7628 78.4581 92.7987 81.0406 90.8002 83.5811C88.8598 86.0477 86.7411 88.482 85.0391 91.1295C84.4247 92.0854 83.9963 93.1307 83.7944 94.2415" stroke="#DBDBDB" stroke-linecap="round"/>
<path d="M101.461 78.7296C97.5509 85.1129 93.5536 91.3763 88.2468 96.6831" stroke="#DBDBDB" stroke-linecap="round"/>
<path d="M100.168 82.6077C97.1594 86.7862 93.917 90.8356 91.0396 95.1033C90.4844 95.9267 90.0409 96.8685 89.8267 97.8322" stroke="#DBDBDB" stroke-linecap="round"/>
<path d="M98.8753 86.9165C97.191 89.8639 95.2755 92.7327 93.3137 95.5023C92.9848 95.9666 92.5558 96.3478 92.2684 96.8268" stroke="#DBDBDB" stroke-linecap="round"/>
</g>
<path d="M48.2978 47.16C48.2978 46.3456 48.0915 45.7212 48.9099 45.3237C49.869 44.8579 51.7671 44.9838 52.7866 45.1537C53.7606 45.316 56.2708 46.2992 56.7313 47.262C57.337 48.5286 56.0838 50.5455 55.6885 51.7168C54.8328 54.2522 52.406 58.6216 49.6127 55.6048C48.4132 54.3094 47.5471 53.2056 47.187 51.4561C47.001 50.553 46.7775 49.0884 47.4817 48.3842" stroke="#545454" stroke-width="2" stroke-linecap="round"/>
<path d="M51.3583 48.7924C50.9818 48.7924 49.7789 48.9879 49.5674 48.5883C49.0789 47.6656 50.3133 47.5682 50.9049 47.5682C51.9092 47.5682 52.5801 49.3696 52.7412 50.1753C52.9462 51.2002 52.8968 51.8885 51.9704 52.3517C51.3813 52.6462 50.6807 52.6691 50.0321 52.6691C49.4772 52.6691 49.3939 50.9468 49.3293 50.5267C49.2049 49.7178 49.7333 48.7924 50.6442 48.7924C51.845 48.7924 52.5399 49.3608 53.1947 50.3793C54.1721 51.8997 52.6542 55.3215 50.7462 55.3215C49.6068 55.3215 49.9301 53.5437 49.9301 52.7144C49.9301 50.9372 50.4172 49.1186 52.0611 48.1009C52.5951 47.7703 54.2389 47.1355 54.7249 47.7835C55.4824 48.7935 54.7933 50.1955 54.2148 51.1275C52.4092 54.0366 51.0526 50.4265 50.7462 48.5883" stroke="#545454" stroke-width="2" stroke-linecap="round"/>
</svg>
